<svg width="64" height="64" viewBox="0 0 64 64" fill="none" xmlns="http://www.w3.org/2000/svg">
<path d="M22.2299 52.1101H14.3699C13.7033 52.1074 13.0649 51.8408 12.5944 51.3685C12.124 50.8962 11.8599 50.2567 11.8599 49.5901V14.5901C11.8625 13.9252 12.1278 13.2883 12.598 12.8181C13.0681 12.348 13.705 12.0827 14.3699 12.0801H22.2299C23.4234 12.0801 24.5679 11.606 25.4119 10.7621C26.2558 9.91814 26.7299 8.77355 26.7299 7.58008C26.7299 6.3866 26.2558 5.24201 25.4119 4.3981C24.5679 3.55418 23.4234 3.08008 22.2299 3.08008H14.3699C12.8562 3.08139 11.3576 3.38099 9.95982 3.96177C8.56199 4.54254 7.29233 5.39309 6.2234 6.46481C5.15446 7.53653 4.30722 8.80841 3.73009 10.2077C3.15295 11.6071 2.85725 13.1064 2.85988 14.6201V49.6201C2.87045 52.6676 4.08713 55.587 6.24396 57.7401C8.40079 59.8932 11.3223 61.1048 14.3699 61.1101H22.2299C22.8208 61.1101 23.406 60.9937 23.952 60.7675C24.4979 60.5414 24.994 60.2099 25.4119 59.7921C25.8297 59.3742 26.1612 58.8781 26.3873 58.3322C26.6135 57.7862 26.7299 57.201 26.7299 56.6101C26.7299 56.0191 26.6135 55.434 26.3873 54.888C26.1612 54.342 25.8297 53.846 25.4119 53.4281C24.994 53.0102 24.4979 52.6788 23.952 52.4526C23.406 52.2265 22.8208 52.1101 22.2299 52.1101V52.1101Z" fill="#7c45d6" id="id_101"></path>
<path d="M56.1398 27.1799H33.1398L36.6398 23.6799C37.1174 23.2187 37.4983 22.667 37.7603 22.057C38.0224 21.4469 38.1603 20.7908 38.1661 20.1269C38.1719 19.463 38.0453 18.8046 37.7939 18.1902C37.5425 17.5757 37.1713 17.0174 36.7018 16.548C36.2323 16.0785 35.6741 15.7072 35.0596 15.4558C34.4451 15.2044 33.7867 15.0779 33.1228 15.0837C32.4589 15.0895 31.8028 15.2274 31.1928 15.4894C30.5828 15.7515 30.0311 16.1324 29.5698 16.6099L17.6298 28.5499C17.1444 29.0114 16.7567 29.5656 16.4896 30.1797C16.2225 30.7939 16.0815 31.4554 16.0749 32.1251C16.0684 32.7948 16.1965 33.459 16.4516 34.0782C16.7066 34.6975 17.0835 35.2591 17.5598 35.7299L29.5598 47.6299C30.5054 48.5384 31.7699 49.0391 33.0811 49.0242C34.3922 49.0092 35.645 48.4798 36.5696 47.55C37.4941 46.6202 38.0164 45.3644 38.024 44.0532C38.0315 42.742 37.5236 41.4803 36.6098 40.5399L33.2598 37.1799H56.1398C57.4659 37.1799 58.7377 36.6532 59.6754 35.7155C60.613 34.7778 61.1398 33.506 61.1398 32.1799C61.1398 30.8539 60.613 29.5821 59.6754 28.6444C58.7377 27.7067 57.4659 27.1799 56.1398 27.1799V27.1799Z" fill="#7e46d6" id="id_102"></path>
<path d="M22.2299 52.1101H14.3699C13.7033 52.1074 13.0649 51.8408 12.5944 51.3685C12.124 50.8962 11.8599 50.2567 11.8599 49.5901V14.5901C11.8625 13.9252 12.1278 13.2883 12.598 12.8181C13.0681 12.348 13.705 12.0827 14.3699 12.0801H22.2299C23.4234 12.0801 24.5679 11.606 25.4119 10.7621C26.2558 9.91814 26.7299 8.77355 26.7299 7.58008C26.7299 6.3866 26.2558 5.24201 25.4119 4.3981C24.5679 3.55418 23.4234 3.08008 22.2299 3.08008H14.3699C12.8562 3.08139 11.3576 3.38099 9.95982 3.96177C8.56199 4.54254 7.29233 5.39309 6.2234 6.46481C5.15446 7.53653 4.30722 8.80841 3.73009 10.2077C3.15295 11.6071 2.85725 13.1064 2.85988 14.6201V49.6201C2.87045 52.6676 4.08713 55.587 6.24396 57.7401C8.40079 59.8932 11.3223 61.1048 14.3699 61.1101H22.2299C22.8208 61.1101 23.406 60.9937 23.952 60.7675C24.4979 60.5414 24.994 60.2099 25.4119 59.7921C25.8297 59.3742 26.1612 58.8781 26.3873 58.3322C26.6135 57.7862 26.7299 57.201 26.7299 56.6101C26.7299 56.0191 26.6135 55.434 26.3873 54.888C26.1612 54.342 25.8297 53.846 25.4119 53.4281C24.994 53.0102 24.4979 52.6788 23.952 52.4526C23.406 52.2265 22.8208 52.1101 22.2299 52.1101V52.1101ZM22.2299 59.1101H14.3699C11.8476 59.1048 9.43022 58.0998 7.64761 56.3153C5.865 54.5308 4.86252 52.1124 4.85988 49.5901V14.5901C4.86517 12.0695 5.86881 9.65366 7.65113 7.87133C9.43346 6.089 11.8493 5.08536 14.3699 5.08008H22.2299C22.8929 5.08008 23.5288 5.34347 23.9976 5.81231C24.4665 6.28115 24.7299 6.91704 24.7299 7.58008C24.7299 8.24312 24.4665 8.879 23.9976 9.34785C23.5288 9.81669 22.8929 10.0801 22.2299 10.0801H14.3699C13.1738 10.0801 12.0266 10.5552 11.1808 11.401C10.335 12.2468 9.85988 13.394 9.85988 14.5901V49.5901C9.85988 50.7871 10.3347 51.9353 11.1802 52.7827C12.0257 53.63 13.1728 54.1074 14.3699 54.1101H22.2299C22.8929 54.1101 23.5288 54.3735 23.9976 54.8423C24.4665 55.3111 24.7299 55.947 24.7299 56.6101C24.7299 57.2731 24.4665 57.909 23.9976 58.3778C23.5288 58.8467 22.8929 59.1101 22.2299 59.1101V59.1101Z" fill="#814ad9" id="id_103"></path>
<path d="M56.1398 27.1799H33.1398L36.6398 23.6799C37.1174 23.2187 37.4983 22.667 37.7603 22.057C38.0224 21.4469 38.1603 20.7908 38.1661 20.1269C38.1719 19.463 38.0453 18.8046 37.7939 18.1902C37.5425 17.5757 37.1713 17.0174 36.7018 16.548C36.2323 16.0785 35.6741 15.7072 35.0596 15.4558C34.4451 15.2044 33.7867 15.0779 33.1228 15.0837C32.4589 15.0895 31.8028 15.2274 31.1928 15.4894C30.5828 15.7515 30.0311 16.1324 29.5698 16.6099L17.6298 28.5499C17.1444 29.0114 16.7567 29.5656 16.4896 30.1797C16.2225 30.7939 16.0815 31.4554 16.0749 32.1251C16.0684 32.7948 16.1965 33.459 16.4516 34.0782C16.7066 34.6975 17.0835 35.2591 17.5598 35.7299L29.5598 47.6299C30.5054 48.5384 31.7699 49.0391 33.0811 49.0242C34.3922 49.0092 35.645 48.4798 36.5696 47.55C37.4941 46.6202 38.0164 45.3644 38.024 44.0532C38.0315 42.742 37.5236 41.4803 36.6098 40.5399L33.2598 37.1799H56.1398C57.4659 37.1799 58.7377 36.6532 59.6754 35.7155C60.613 34.7778 61.1398 33.506 61.1398 32.1799C61.1398 30.8539 60.613 29.5821 59.6754 28.6444C58.7377 27.7067 57.4659 27.1799 56.1398 27.1799V27.1799ZM56.1398 35.1799H30.8698C30.6724 35.1809 30.4797 35.2403 30.316 35.3507C30.1523 35.461 30.0249 35.6173 29.9498 35.7999C29.8733 35.982 29.8523 36.1828 29.8897 36.3767C29.9271 36.5707 30.0211 36.7493 30.1598 36.8899L35.2298 41.9999C35.6963 42.5771 35.9322 43.3066 35.8922 44.0476C35.8521 44.7886 35.5388 45.4885 35.0128 46.012C34.4869 46.5354 33.7855 46.8454 33.0444 46.882C32.3032 46.9185 31.5748 46.6791 30.9998 46.2099L18.9998 34.3099C18.711 34.0302 18.4814 33.6953 18.3246 33.3251C18.1677 32.9549 18.0869 32.557 18.0869 32.1549C18.0869 31.7529 18.1677 31.3549 18.3246 30.9847C18.4814 30.6145 18.711 30.2796 18.9998 29.9999L30.9998 17.9999C31.4194 17.5809 31.9537 17.2956 32.5353 17.1801C33.1169 17.0645 33.7197 17.1239 34.2675 17.3508C34.8154 17.5776 35.2837 17.9617 35.6134 18.4546C35.9431 18.9475 36.1193 19.527 36.1198 20.1199C36.1191 20.9153 35.8026 21.6779 35.2398 22.2399L29.9998 27.4699C29.8594 27.6094 29.7635 27.7875 29.7244 27.9815C29.6852 28.1756 29.7045 28.3769 29.7798 28.5599C29.8555 28.7441 29.9844 28.9015 30.1501 29.012C30.3158 29.1225 30.5107 29.1809 30.7098 29.1799H56.1398C56.9355 29.1799 57.6985 29.496 58.2612 30.0586C58.8238 30.6212 59.1398 31.3843 59.1398 32.1799C59.1398 32.9756 58.8238 33.7386 58.2612 34.3013C57.6985 34.8639 56.9355 35.1799 56.1398 35.1799V35.1799Z" fill="#834cdb" id="id_104"></path>
</svg>